HIERARCHY
ROOT Hips
{
     OFFSET 25.62650 96.38690 -17.75550
     CHANNELS 6 Xposition Yposition Zposition Zrotation Xrotation Yrotation
     JOINT Spine
     {
          OFFSET 0.00000 11.89050 -0.00000
          CHANNELS 3 Zrotation Xrotation Yrotation
          JOINT Spine1
          {
               OFFSET -0.00000 25.65740 0.12766
               CHANNELS 3 Zrotation Xrotation Yrotation
               JOINT HEad
               {
                    OFFSET -0.00000 8.73416 0.01134
                    CHANNELS 3 Zrotation Xrotation Yrotation
                    End Site
                    {
                         OFFSET -0.29000 12.77420 2.51395
                    }
               }
               JOINT LeftShoulder1
               {
                    OFFSET 8.99000 -0.36225 -0.22000
                    CHANNELS 3 Zrotation Xrotation Yrotation
                    JOINT LeftArm
                    {
                         OFFSET 10.28270 -0.00338 0.32212
                         CHANNELS 3 Zrotation Xrotation Yrotation
                         JOINT LeftForeArm
                         {
                              OFFSET 32.76690 0.09914 -1.42434
                              CHANNELS 3 Zrotation Xrotation Yrotation
                              JOINT LeftHand
                              {
                                   OFFSET 27.56430 0.08536 1.02216
                                   CHANNELS 3 Zrotation Xrotation Yrotation
                                   End Site
                                   {
                                        OFFSET 16.74430 -0.60000 1.50291
                                   }
                              }
                         }
                    }
               }
               JOINT RightShoulder
               {
                    OFFSET -8.99000 -0.36225 -0.22000
                    CHANNELS 3 Zrotation Xrotation Yrotation
                    JOINT RightArm
                    {
                         OFFSET -10.28270 -0.00338 0.32212
                         CHANNELS 3 Zrotation Xrotation Yrotation
                         JOINT RightForeArm
                         {
                              OFFSET -32.89710 0.09914 -1.42434
                              CHANNELS 3 Zrotation Xrotation Yrotation
                              JOINT RightHand
                              {
                                   OFFSET -27.49210 0.08536 1.02216
                                   CHANNELS 3 Zrotation Xrotation Yrotation
                                   End Site
                                   {
                                        OFFSET -16.63120 -0.60000 1.50291
                                   }
                              }
                         }
                    }
               }
          }
     }
     JOINT LeftUpLeg
     {
          OFFSET 8.94580 -8.66707 0.10165
          CHANNELS 3 Zrotation Xrotation Yrotation
          JOINT LeftLeg
          {
               OFFSET -0.00000 -44.42270 1.37270
               CHANNELS 3 Zrotation Xrotation Yrotation
               JOINT LeftFoot
               {
                    OFFSET -0.25355 -42.09240 -1.46059
                    CHANNELS 3 Zrotation Xrotation Yrotation
                    JOINT LeftToes
                    {
                         OFFSET -0.04000 -4.41509 8.49910
                         CHANNELS 3 Zrotation Xrotation Yrotation
                         End Site
                         {
                              OFFSET 0.08000 -0.04745 9.77979
                         }
                    }
               }
          }
     }
     JOINT RightUpLeg
     {
          OFFSET -8.94580 -8.66707 0.10165
          CHANNELS 3 Zrotation Xrotation Yrotation
          JOINT RightLeg
          {
               OFFSET 0.00000 -44.42270 1.37270
               CHANNELS 3 Zrotation Xrotation Yrotation
               JOINT RightFoot
               {
                    OFFSET 0.25355 -42.09240 -1.46059
                    CHANNELS 3 Zrotation Xrotation Yrotation
                    JOINT RightToes
                    {
                         OFFSET 0.04000 -4.41509 8.49910
                         CHANNELS 3 Zrotation Xrotation Yrotation
                         End Site
                         {
                              OFFSET -0.08000 -0.13745 9.77979
                         }
                    }
               }
          }
     }
}
MOTION
Frames: 8
Frame Time: 0.01667
31.29470 91.40400 12.59490 7.15118 -11.75580 22.74740 -0.58365 7.50406 7.47223 -0.80525 15.37970 17.97220 -15.16840 12.41200 -25.12670 -0.00000 0.00000 -0.00000 -99.04910 -32.57310 -71.11980 -65.68700 43.22980 -64.45320 30.09960 2.89814 -22.06420 -18.22290 0.72129 -6.80570 126.11900 14.24620 136.94200 6.24718 33.77470 131.01700 -6.90107 8.49221 21.68690 -8.85277 -17.63350 -16.96100 -14.94740 21.17090 43.17720 -5.68872 26.01240 1.49719 3.68303 -24.09900 -85.62930 -32.29750 27.29040 22.79590 45.03190 16.07040 -21.69190 -11.55700 21.15400 2.92301 16.41400 -48.43310 35.09750 
31.63360 91.56330 12.69480 6.18090 -12.24490 19.75590 -0.68176 7.93472 6.95984 -1.03477 16.17500 17.09940 -14.36910 12.12460 -24.65020 -0.00000 0.00000 -0.00000 -100.43000 -33.03380 -73.13270 -66.17330 44.30990 -63.05220 29.60790 3.13330 -21.65290 -15.77660 0.22496 -2.70137 128.47099 12.59770 133.11800 8.61745 36.07570 127.51400 -6.71089 8.59237 20.64480 -7.43450 -17.75030 -16.71540 -15.47160 21.32720 45.17120 -5.04368 24.94320 1.26643 3.11071 -25.03460 -84.86380 -32.64830 26.03950 22.62720 45.34340 17.09740 -23.18140 -12.60730 21.03640 3.17546 16.05840 -47.55790 35.39350 
31.96370 91.75480 12.76610 5.07426 -12.63720 16.54490 -0.75443 8.36410 6.43348 -1.28977 16.97430 16.20320 -13.25280 11.85770 -24.14970 -0.00000 0.00000 -0.00000 -101.16200 -32.83570 -75.15300 -66.13680 44.60300 -61.97810 28.88920 3.42360 -21.22320 -13.11610 -0.03507 0.65666 130.30600 10.98660 128.99100 10.47950 37.68410 124.27500 -6.63802 8.65470 19.77770 -5.79925 -17.83080 -16.50710 -16.13220 21.24190 47.23160 -4.48103 23.80620 1.06845 2.77952 -25.62390 -83.88570 -32.83120 24.64450 22.34330 45.61190 18.24210 -24.67200 -13.59370 20.50520 3.35793 14.77940 -46.16250 33.81590 
32.27520 91.95830 12.79880 3.85942 -12.87870 13.20830 -0.81557 8.77674 5.88592 -1.55803 17.73830 15.25160 -11.94010 11.36530 -23.43330 -0.00000 0.00000 -0.00000 -100.63100 -31.80780 -76.86780 -64.87380 43.84800 -62.21900 28.00930 3.78000 -20.65620 -10.32300 -0.10414 3.41942 131.40700 9.06655 124.70600 11.68360 38.64370 121.48800 -6.49688 8.72186 19.06020 -3.99565 -17.91700 -16.33300 -16.89730 20.94800 49.28760 -3.98817 22.67110 0.90040 2.64416 -25.92850 -82.73460 -32.88210 23.15330 21.95760 45.88270 19.35620 -26.11270 -14.56620 19.86290 3.51330 12.91310 -44.62850 30.38180 
32.56970 92.15360 12.77130 2.54356 -12.95550 9.84596 -0.86735 9.16987 5.30120 -1.77290 18.45380 14.18760 -10.60650 10.47190 -22.33970 -0.00000 0.00000 -0.00000 -99.54550 -30.57150 -78.52260 -63.26550 42.44130 -62.95080 26.96940 4.17073 -20.05280 -7.49456 -0.02735 5.78923 131.52600 6.66336 120.49400 12.48820 39.21400 118.94200 -6.12385 8.83054 18.39610 -2.07471 -18.04590 -16.13740 -17.65310 20.53930 51.25520 -3.55123 21.63880 0.75911 2.60088 -26.09550 -81.54570 -32.84050 21.65100 21.44290 46.23960 20.30250 -27.60120 -15.71300 19.28650 3.70923 10.79080 -43.08270 25.53350 
32.85720 92.32030 12.66420 1.12061 -12.88730 6.54543 -0.89715 9.53993 4.66959 -1.85436 19.11420 12.97080 -9.35584 9.18961 -20.82860 -0.00000 0.00000 -0.00000 -98.58140 -29.59900 -80.28450 -61.79000 40.95200 -63.66210 25.85630 4.56389 -19.44940 -4.64320 0.16798 7.92475 130.40601 3.81701 116.53700 13.24260 39.59370 116.34000 -5.38909 9.00530 17.71020 -0.03828 -18.23410 -15.94270 -18.38310 20.08450 53.17320 -3.13241 20.74250 0.63317 2.57102 -26.23770 -80.46050 -32.73210 20.22470 20.76200 46.74290 21.04270 -29.32540 -17.09460 18.72860 3.95217 8.75742 -41.28810 20.49150 
33.14810 92.44210 12.46940 -0.39915 -12.70920 3.35559 -0.89006 9.87408 4.00385 -1.76243 19.70120 11.61830 -8.16904 7.80579 -18.94880 -0.00000 0.00000 -0.00000 -98.20440 -29.13870 -82.18650 -60.44820 40.00070 -64.20480 24.86530 4.91284 -18.86200 -1.76575 0.46768 9.86685 127.96400 0.71243 112.83500 14.12640 39.79790 113.58800 -4.22754 9.25064 17.01300 2.13609 -18.46590 -15.80660 -19.16270 19.59700 55.14480 -2.69183 19.94440 0.51038 2.54146 -26.36760 -79.56680 -32.59590 18.94810 19.93570 47.38740 21.58770 -31.47400 -18.57330 18.06750 4.18750 7.18747 -39.14830 16.76120 
33.44690 92.51730 12.19520 -1.97145 -12.44710 0.27136 -0.85199 10.15540 3.34165 -1.52050 20.18580 10.21140 -6.99411 6.85357 -16.71770 -0.00000 0.00000 -0.00000 -98.55940 -29.20530 -84.17200 -59.01010 39.96930 -64.65230 24.18100 5.17280 -18.33460 0.99315 0.83853 11.54610 124.52800 -2.39026 109.24800 15.05530 39.75510 110.87400 -2.73510 9.53987 16.35700 4.42495 -18.70950 -15.66410 -20.00310 19.11370 57.12310 -2.28793 19.18340 0.40285 2.57966 -26.36490 -78.85490 -32.49380 17.87080 19.04760 48.08240 21.93260 -34.04350 -20.02570 17.30640 4.38271 6.18841 -36.92840 14.89160 
